<?xml version='1.0' encoding='iso-8859-1'?>
<svg version="1.1" xmlns="http://www.w3.org/2000/svg" viewBox="0 0 462.949 462.949" xmlns:xlink="http://www.w3.org/1999/xlink" enable-background="new 0 0 462.949 462.949">
  <g>
    <path d="m413.715,395.288c-20.11-30.165-30.74-65.272-30.74-101.527v-10.86c0-39.896-14.961-77.908-42.127-107.035-15.33-16.437-33.605-28.986-53.636-37.112l104.818-20.989c7.3-1.446 13.346-6.117 16.587-12.815 3.242-6.698 3.153-14.338-0.242-20.96l-36.029-70.255c-3.647-7.113-10.256-11.979-18.132-13.351-7.875-1.37-15.741,0.974-21.591,6.448l-69.31,65.148c-6.63-5.035-14.89-8.031-23.839-8.031h-16c-8.898,0-17.117,2.96-23.728,7.944l-69.432-65.073c-5.838-5.462-13.704-7.809-21.579-6.437-7.876,1.372-14.485,6.238-18.132,13.351l-36.028,70.256c-3.396,6.622-3.484,14.262-0.242,20.96 3.242,6.699 9.287,11.37 16.586,12.815l105.173,20.841c-20.171,8.122-38.569,20.726-53.99,37.26-27.166,29.127-42.127,67.139-42.127,107.035v10.86c0,36.254-10.63,71.362-30.74,101.527-0.821,1.232-1.26,2.68-1.26,4.16 0,12.958 10.542,23.501 23.501,23.501h106.709c6.812,23.38 28.656,40 53.29,40 25.048,0 46.526-16.482 53.299-40h106.7c12.958,0 23.501-10.542 23.501-23.501 5.68434e-14-1.48-0.439-2.928-1.26-4.16zm-70.832-377.515c2.37-2.216 5.559-3.17 8.757-2.612 3.196,0.556 5.878,2.531 7.358,5.418l36.029,70.255c1.229,2.395 1.26,5.159 0.088,7.582-1.172,2.423-3.359,4.112-6.015,4.638l-110.851,22.196c0.473-1.856 0.726-3.8 0.726-5.802v-10.594l42.872-14.291c3.93-1.31 6.053-5.557 4.744-9.487-1.31-3.93-5.559-6.053-9.487-4.744l-39.409,13.138c-0.961-3.678-2.441-7.148-4.355-10.328l69.543-65.369zm-103.408,61.176c13.509,0 24.5,10.991 24.5,24.5v0.132c0,0.008 0,0.016 0,0.024v15.844c0,4.687-3.813,8.5-8.5,8.5h-48c-4.687,0-8.5-3.813-8.5-8.5v-15.844c0-0.008 0-0.016 0-0.024v-0.132c0-13.509 10.991-24.5 24.5-24.5h16zm-171.641,19.467c-1.172-2.423-1.141-5.187 0.088-7.582l36.029-70.255c1.48-2.887 4.162-4.862 7.358-5.418 3.197-0.558 6.388,0.395 8.752,2.607l69.619,65.249c-1.95,3.214-3.453,6.727-4.427,10.452l-39.408-13.136c-3.929-1.309-8.177,0.814-9.487,4.744-1.31,3.93 0.814,8.177 4.744,9.487l42.872,14.291v10.594c0,1.916 0.236,3.776 0.67,5.56l-110.81-21.957c-2.64-0.523-4.827-2.213-6-4.636zm163.641,349.533c-16.473,0-31.241-10.177-37.421-25h74.872c-6.117,14.899-20.693,25-37.451,25zm159.999-40h-319.999c-4.03,0-7.414-2.819-8.284-6.588 20.801-32.127 31.783-69.272 31.783-107.6v-10.86c0-36.084 13.53-70.463 38.097-96.804 24.72-26.504 57.897-41.796 93.418-43.059 1.584-0.056 8.386-0.056 9.97,0 35.521,1.263 68.698,16.555 93.418,43.059 24.567,26.34 38.097,60.719 38.097,96.804v10.86c0,38.328 10.982,75.473 31.783,107.6-0.869,3.769-4.254,6.588-8.283,6.588z"/>
    <path d="m119.475,275.401c-4.142,0-7.5,3.358-7.5,7.5v10.86c0,30.107-6.127,59.264-18.212,86.661-1.672,3.79 0.045,8.217 3.835,9.889 0.984,0.434 2.012,0.64 3.023,0.64 2.881,0 5.628-1.67 6.866-4.475 12.932-29.316 19.489-60.51 19.489-92.715v-10.86c-0.001-4.142-3.359-7.5-7.501-7.5z"/>
    <path d="m306.33,197.097c-3.013,2.843-3.151,7.589-0.308,10.602 18.493,19.599 29.114,45.158 29.905,71.969 0.12,4.065 3.453,7.279 7.493,7.279 0.075,0 0.15-0.001 0.225-0.003 4.141-0.122 7.398-3.578 7.275-7.718-0.9-30.488-12.971-59.546-33.988-81.82-2.843-3.014-7.589-3.152-10.602-0.309z"/>
    <path d="m291.907,177.051c-5.39-3.301-11.06-6.178-16.852-8.552-3.833-1.571-8.213,0.263-9.784,4.096-1.571,3.833 0.263,8.213 4.096,9.784 5.051,2.07 9.999,4.581 14.706,7.464 1.223,0.749 2.575,1.105 3.91,1.105 2.524,0 4.989-1.274 6.403-3.584 2.163-3.533 1.053-8.15-2.479-10.313z"/>
  </g>
</svg>
