<?xml version="1.0" encoding="iso-8859-1"?>
<!-- Generator: Adobe Illustrator 19.0.0, SVG Export Plug-In . SVG Version: 6.00 Build 0)  -->
<svg version="1.1" id="Layer_1" xmlns="http://www.w3.org/2000/svg" xmlns:xlink="http://www.w3.org/1999/xlink" x="0px" y="0px"
	 viewBox="0 0 512 512" style="enable-background:new 0 0 512 512;" xml:space="preserve">
<g>
	<g>
		<g>
			<path d="M443.736,8.533c0-4.71-3.823-8.533-8.533-8.533c-28.996,0-47.002,19.328-54.579,29.696
				c-22.63-8.482-52.096-12.629-90.487-12.629c-38.391,0-67.857,4.147-90.487,12.629C192.071,19.337,174.066,0,145.07,0
				c-4.71,0-8.533,3.823-8.533,8.533c0,30.293,6.4,66.364,8.226,76.041c-5.606,15.266-8.226,31.855-8.226,51.959
				c0,62.78,54.699,153.6,153.6,153.6s153.6-90.82,153.6-153.6c0-20.19-2.62-36.787-8.226-51.968
				C437.336,74.871,443.736,38.818,443.736,8.533z M290.136,273.067c-87.91,0-136.533-80.725-136.533-136.533
				c0-18.935,2.526-34.219,7.945-48.094c0.597-1.519,0.742-3.174,0.418-4.779c-0.068-0.384-6.895-34.799-8.166-65.749
				c14.464,2.85,24.414,12.279,29.909,19.038c-4.122,2.304-8.038,4.762-11.58,7.492c-3.729,2.884-4.412,8.243-1.527,11.972
				s8.243,4.42,11.972,1.527c21.009-16.239,55.194-23.808,107.563-23.808c52.386,0,86.571,7.569,107.58,23.825
				c1.553,1.203,3.388,1.784,5.214,1.784c2.551,0,5.069-1.135,6.758-3.311c2.884-3.729,2.202-9.088-1.527-11.972
				c-3.541-2.739-7.458-5.188-11.588-7.509c5.53-6.733,15.531-16.171,29.892-19.029c-1.271,30.925-8.09,65.357-8.158,65.741
				c-0.324,1.604-0.179,3.268,0.418,4.796c5.495,13.952,7.945,28.783,7.945,48.077C426.67,192.341,378.047,273.067,290.136,273.067z
				"/>
			<path d="M414.271,444.919c5.402-12.885,12.399-36.053,12.399-69.453c0-55.834-53.632-83.294-55.919-84.437
				c-4.224-2.116-9.327-0.393-11.435,3.806c-2.108,4.207-0.41,9.336,3.789,11.46c0.461,0.23,46.498,24.004,46.498,69.171
				c0,47.548-15.496,71.859-15.633,72.064c-1.749,2.62-1.911,5.982-0.427,8.764c1.485,2.773,4.378,4.506,7.526,4.506
				c25.6,0,25.6,12.843,25.6,17.067c0,11.204-12.877,17.067-25.6,17.067h-8.533c-4.71,0-8.533,3.823-8.533,8.533
				s3.823,8.533,8.533,8.533h8.533c24.721,0,42.667-14.353,42.667-34.133C443.736,460.297,432.95,448.546,414.271,444.919z"/>
			<path d="M187.736,494.933h-8.533c-12.723,0-25.6-5.862-25.6-17.067c0-4.224,0-17.067,25.6-17.067
				c3.132,0,5.999-1.732,7.492-4.489c1.493-2.756,1.34-6.118-0.367-8.738c-0.162-0.247-15.659-24.559-15.659-72.107
				c0-45.167,46.037-68.941,46.481-69.163c4.216-2.116,5.931-7.236,3.814-11.452c-2.108-4.216-7.219-5.931-11.443-3.823
				c-2.287,1.143-55.919,28.604-55.919,84.437c0,33.399,6.997,56.568,12.399,69.453c-18.68,3.627-29.466,15.377-29.466,32.947
				c0,19.78,17.946,34.133,42.667,34.133h8.533c4.71,0,8.533-3.823,8.533-8.533S192.447,494.933,187.736,494.933z"/>
			<path d="M145.07,384c0-4.71-3.823-8.533-8.533-8.533c-0.051,0-5.854-0.401-11.204-6.81c-6.135-7.356-15.07-27.128-5.999-76.996
				c4.352-23.936-7.006-38.246-19.405-41.421c-10.863-2.816-25.284,2.321-31.224,20.13c-1.493,4.471,0.93,9.301,5.402,10.795
				c4.471,1.502,9.301-0.93,10.795-5.402c2.159-6.485,6.468-10.086,10.795-8.994c4.975,1.28,9.242,8.653,6.844,21.837
				c-7.859,43.247-4.599,73.856,9.685,90.982c10.505,12.578,22.929,12.945,24.311,12.945C141.247,392.533,145.07,388.71,145.07,384z
				"/>
			<path d="M341.396,444.211c0.247-22.144,1.553-84.497,8.303-118.272c0.93-4.617-2.065-9.114-6.69-10.035
				c-4.651-0.93-9.122,2.074-10.035,6.69c-7.117,35.533-8.405,98.364-8.644,121.139h-0.06c-4.71,0-8.533,3.823-8.533,8.533
				c0,4.71,3.823,8.533,8.533,8.533h8.533c25.6,0,25.6,12.843,25.6,17.067c0,11.204-12.877,17.067-25.6,17.067h-8.533
				c-14.114,0-25.6-11.486-25.6-25.6v-153.6c0-4.71-3.823-8.533-8.533-8.533c-4.71,0-8.533,3.823-8.533,8.533v153.6
				c0,14.114-11.486,25.6-25.6,25.6h-8.533c-12.723,0-25.6-5.862-25.6-17.067c0-4.224,0-17.067,25.6-17.067h8.533
				c4.71,0,8.533-3.823,8.533-8.533c0-4.71-3.823-8.533-8.533-8.533h-0.06c-0.239-22.775-1.536-85.606-8.644-121.139
				c-0.913-4.617-5.376-7.612-10.035-6.69c-4.625,0.922-7.62,5.419-6.699,10.035c6.758,33.775,8.064,96.128,8.311,118.272
				c-21.504,2.5-34.074,14.686-34.074,33.655c0,19.78,17.946,34.133,42.667,34.133h8.533c13.943,0,26.342-6.724,34.133-17.092
				C297.927,505.276,310.326,512,324.27,512h8.533c24.721,0,42.667-14.353,42.667-34.133
				C375.47,458.897,362.9,446.711,341.396,444.211z"/>
			<path d="M345.603,110.933c-7.057,0-12.8,5.743-12.8,12.8s5.743,12.8,12.8,12.8s12.8-5.743,12.8-12.8
				S352.66,110.933,345.603,110.933z"/>
			<path d="M247.47,123.733c0-7.057-5.743-12.8-12.8-12.8s-12.8,5.743-12.8,12.8s5.743,12.8,12.8,12.8S247.47,130.79,247.47,123.733
				z"/>
			<path d="M345.244,222.814c-4.198-2.159-9.335-0.512-11.494,3.678c-1.468,2.842-7.168,3.874-9.481,3.908
				c-10.385,0-21.154-9.182-24.474-19.439c15.019-7.33,24.474-30.046,24.474-40.294c0-17.067-18.927-17.067-34.133-17.067
				c-15.206,0-34.133,0-34.133,17.067c0,10.249,9.455,32.964,24.474,40.294c-3.319,10.257-14.089,19.439-24.474,19.439
				c-1.212,0-7.731-0.708-9.583-4.096c-2.261-4.13-7.441-5.649-11.58-3.388c-4.13,2.261-5.658,7.441-3.388,11.58
				c6.895,12.604,22.767,12.971,24.55,12.971c13.252,0,26.069-7.569,34.133-18.398c8.064,10.829,20.881,18.398,34.133,18.398
				c1.826,0,18.057-0.375,24.653-13.158C351.081,230.118,349.434,224.973,345.244,222.814z M290.136,196.267
				c-7.04,0-16.154-17.015-17.007-24.576c3.217-1.024,11.392-1.024,17.007-1.024s13.798,0,17.007,1.024
				C306.315,179.217,297.185,196.267,290.136,196.267z"/>
		</g>
	</g>
</g>
<g>
</g>
<g>
</g>
<g>
</g>
<g>
</g>
<g>
</g>
<g>
</g>
<g>
</g>
<g>
</g>
<g>
</g>
<g>
</g>
<g>
</g>
<g>
</g>
<g>
</g>
<g>
</g>
<g>
</g>
</svg>
