<?xml version="1.0" encoding="iso-8859-1"?>
<!-- Generator: Adobe Illustrator 19.0.0, SVG Export Plug-In . SVG Version: 6.00 Build 0)  -->
<svg version="1.1" id="Layer_1" xmlns="http://www.w3.org/2000/svg" xmlns:xlink="http://www.w3.org/1999/xlink" x="0px" y="0px"
	 viewBox="0 0 512.001 512.001" style="enable-background:new 0 0 512.001 512.001;" xml:space="preserve">
<g>
	<g>
		<circle cx="433.43" cy="246.632" r="8.494"/>
	</g>
</g>
<g>
	<g>
		<path d="M468.131,194.755l0.528-0.279c-0.669-1.262-16.761-31.284-50.463-62.194c-31.169-28.586-83.891-63.239-158.056-65.984
			c-27.534-1.014-47.679,2.566-67.367,11.988c-13.71,6.562-32.218,17.536-34.648,37.007c-2.053,16.451,8.163,34.868,31.158,56.077
			c-6.441,2.536-12.746,5.207-18.818,7.993c-20.914-8.38-48.498-25.092-67.558-57.969c-1.519-2.62-4.319-4.234-7.349-4.234
			c-26.241,0-50.64,15.424-68.703,43.433C9.537,187.448,0,222.985,0,260.657c0,37.672,9.537,73.209,26.856,100.063
			c18.063,28.009,42.462,43.433,68.703,43.433c3.029,0,5.829-1.614,7.349-4.234c19.061-32.877,46.643-49.589,67.557-57.968
			c8.834,4.054,18.161,7.867,27.683,11.364c-17.79,36.875-8.267,64.099,5.934,76.531c12.259,10.732,64.063,15.675,69.254,15.861
			c3.064,0.109,6.074,0.162,9.036,0.162c68.718,0,110.034-28.824,132.841-53.6c20.331-22.085,29.676-44.487,32.903-53.631
			c41.291-21.971,63.887-49.441,63.887-77.983C512,237.134,496.64,214.343,468.131,194.755z M174.982,117.397
			c1.051-8.418,9.268-16.199,25.125-23.787c17.039-8.156,34.806-11.244,59.405-10.334c55.184,2.043,104.556,22.602,146.743,61.107
			c12.474,11.385,22.43,22.739,29.944,32.354c-40.893-19.107-92.167-30.46-137.978-30.46l-1.229,0.003
			c-9.69,0.044-21.232,1.331-33.758,3.619l-24.7-33.593c-2.779-3.78-8.095-4.59-11.876-1.811c-3.779,2.78-4.59,8.096-1.811,11.876
			l20.147,27.399c-12.256,2.942-25.011,6.654-37.603,10.955C178.856,140.373,173.96,125.578,174.982,117.397z M90.894,386.942
			c-18.556-1.788-36.077-14.209-49.76-35.429c-15.57-24.143-24.145-56.41-24.145-90.857s8.575-66.713,24.145-90.857
			c13.684-21.22,31.206-33.64,49.76-35.428c17.34,27.742,40.061,44.596,60.06,54.775c-14.903,8.177-29.708,18.115-40.994,29.657
			c-11.01-4.965-28.197-16.793-34.649-21.507c-3.788-2.768-9.103-1.94-11.87,1.848c-2.767,3.787-1.941,9.102,1.846,11.869
			c2.34,1.711,19.404,14.063,33.709,21.335c-5.583,8.662-8.94,18.039-8.99,28.081H52.248c-4.692,0-8.494,3.802-8.494,8.494
			c0,4.691,3.802,8.494,8.494,8.494h40.878c3.584,9.56,10.024,18.384,18.146,26.412c-9.467,6.585-25.484,17.027-33.915,19.621
			c-4.484,1.379-7,6.133-5.62,10.617c1.123,3.651,4.485,5.998,8.116,5.998c0.827,0,1.669-0.122,2.5-0.378
			c13.155-4.048,35.454-19.602,42.194-24.432c8.247,6.27,17.308,11.919,26.407,16.911C130.955,342.346,108.235,359.2,90.894,386.942
			z M174.396,325.046c-42.837-20.268-67.405-43.738-67.405-64.39c0-20.653,24.569-44.121,67.402-64.388
			c45.036-21.281,96.819-32.888,122.676-33.003l1.152-0.003c26.704,0,55.355,4.067,82.466,11.401
			c-10.306,21.523-31.435,74.419-15.363,118.892c6.995,19.356,20.104,34.662,39.069,45.694
			c-33.589,11.955-71.521,18.799-106.172,18.799l-1.152-0.002C271.211,357.932,219.428,346.326,174.396,325.046z M402.189,381.328
			c-31.065,33.387-74.221,49.338-128.248,47.401c-13.87-0.496-52.888-6.899-58.671-11.666c-9.854-8.626-15.756-28.91-0.951-58.168
			c15.283,4.935,30.626,8.955,44.851,11.751l-7.904,22.923c-1.529,4.435,0.826,9.269,5.261,10.799
			c0.917,0.316,1.851,0.466,2.769,0.466c3.523,0,6.817-2.21,8.03-5.727l8.84-25.639c7.557,0.996,14.576,1.54,20.827,1.567
			l1.228,0.002c41.591,0,87.682-9.362,126.425-25.385C419.788,358.85,412.551,370.192,402.189,381.328z M432.067,327.736
			c-2.129,1.03-4.294,2.033-6.484,3.018c-22.39-9.228-37.286-23.648-44.266-42.925c-14.434-39.855,7.3-90.672,15.899-108.222
			c12.22,4.015,23.955,8.696,34.852,13.971c40.002,19.364,62.944,43.813,62.944,67.079
			C495.011,283.921,472.07,308.371,432.067,327.736z"/>
	</g>
</g>
<g>
</g>
<g>
</g>
<g>
</g>
<g>
</g>
<g>
</g>
<g>
</g>
<g>
</g>
<g>
</g>
<g>
</g>
<g>
</g>
<g>
</g>
<g>
</g>
<g>
</g>
<g>
</g>
<g>
</g>
</svg>
