<?xml version="1.0" encoding="iso-8859-1"?>
<!-- Generator: Adobe Illustrator 19.0.0, SVG Export Plug-In . SVG Version: 6.00 Build 0)  -->
<svg version="1.1" id="Capa_1" xmlns="http://www.w3.org/2000/svg" xmlns:xlink="http://www.w3.org/1999/xlink" x="0px" y="0px"
	 viewBox="0 0 58.365 58.365" style="enable-background:new 0 0 58.365 58.365;" xml:space="preserve">
<g>
	<path d="M57.863,26.632L29.182,0L0.502,26.632c-0.404,0.376-0.428,1.009-0.052,1.414c0.374,0.404,1.009,0.427,1.413,0.052
		l3.319-3.082v33.349h48V25.015l3.319,3.082c0.192,0.179,0.437,0.267,0.681,0.267c0.269,0,0.536-0.107,0.732-0.319
		C58.291,27.641,58.267,27.008,57.863,26.632z M51.182,56.365h-44V23.158l22-20.429l22,20.429V56.365z"/>
	<path d="M13.182,35.365h14v-14h-14V35.365z M15.182,23.365h10v10h-10V23.365z"/>
	<path d="M45.182,21.365h-14v14h14V21.365z M43.182,33.365h-10v-10h10V33.365z"/>
	<path d="M13.182,53.365h14v-14h-14V53.365z M15.182,41.365h10v10h-10V41.365z"/>
	<path d="M45.182,39.365h-14v14h14V39.365z M43.182,51.365h-10v-10h10V51.365z"/>
</g>
<g>
</g>
<g>
</g>
<g>
</g>
<g>
</g>
<g>
</g>
<g>
</g>
<g>
</g>
<g>
</g>
<g>
</g>
<g>
</g>
<g>
</g>
<g>
</g>
<g>
</g>
<g>
</g>
<g>
</g>
</svg>
