<?xml version="1.0" encoding="iso-8859-1"?>
<!-- Generator: Adobe Illustrator 19.0.0, SVG Export Plug-In . SVG Version: 6.00 Build 0)  -->
<svg version="1.1" id="Capa_1" xmlns="http://www.w3.org/2000/svg" xmlns:xlink="http://www.w3.org/1999/xlink" x="0px" y="0px"
	 viewBox="0 0 58.365 58.365" style="enable-background:new 0 0 58.365 58.365;" xml:space="preserve">
<path d="M57.863,26.632L29.182,0L0.502,26.632c-0.404,0.376-0.428,1.009-0.052,1.414c0.374,0.404,1.009,0.427,1.413,0.052
	l4.319-4.011v3.278v31h46v-31v-3.278l4.319,4.011c0.192,0.179,0.437,0.267,0.681,0.267c0.269,0,0.536-0.107,0.732-0.319
	C58.291,27.641,58.267,27.008,57.863,26.632z M26.182,52.365h-12v-12h12V52.365z M26.182,34.365h-12v-12h12V34.365z M44.182,52.365
	h-12v-12h12V52.365z M44.182,34.365h-12v-12h12V34.365z"/>
<g>
</g>
<g>
</g>
<g>
</g>
<g>
</g>
<g>
</g>
<g>
</g>
<g>
</g>
<g>
</g>
<g>
</g>
<g>
</g>
<g>
</g>
<g>
</g>
<g>
</g>
<g>
</g>
<g>
</g>
</svg>
