<?xml version="1.0" encoding="iso-8859-1"?>
<!-- Generator: Adobe Illustrator 19.0.0, SVG Export Plug-In . SVG Version: 6.00 Build 0)  -->
<svg version="1.1" id="Layer_1" xmlns="http://www.w3.org/2000/svg" xmlns:xlink="http://www.w3.org/1999/xlink" x="0px" y="0px"
	 viewBox="0 0 512 512" style="enable-background:new 0 0 512 512;" xml:space="preserve">
<g>
	<g>
		<circle cx="292.073" cy="395.636" r="11.636"/>
	</g>
</g>
<g>
	<g>
		<circle cx="198.982" cy="395.636" r="11.636"/>
	</g>
</g>
<g>
	<g>
		<path d="M292.073,23.273c19.782,0,34.909,15.127,34.909,34.909c0,32.582,25.6,58.182,58.182,58.182
			c32.582,0,58.182-25.6,58.182-58.182c0-6.982-4.655-11.636-11.636-11.636s-11.636,4.655-11.636,11.636
			c0,19.782-15.127,34.909-34.909,34.909c-19.782,0-34.909-15.127-34.909-34.909C350.255,25.6,324.655,0,292.073,0
			c-32.582,0-58.182,25.6-58.182,58.182v34.909c-62.836,4.655-111.709,51.2-130.327,124.509c-1.164,5.818,2.327,12.8,8.145,13.964
			s12.8-2.327,13.964-8.145c17.455-67.491,61.673-107.055,119.855-107.055s102.4,39.564,119.855,107.055
			c1.164,5.818,5.818,9.309,11.636,9.309c1.164,0,2.327,0,3.491,0c5.818-1.164,10.473-8.146,8.145-13.964
			C368.873,144.291,320,98.909,257.164,93.091V58.182C257.164,38.4,272.291,23.273,292.073,23.273z"/>
	</g>
</g>
<g>
	<g>
		<path d="M361.891,256c-32.582,0-58.182,25.6-58.182,58.182c0,6.982,4.655,11.636,11.636,11.636s11.636-4.655,11.636-11.636
			c0-19.782,15.127-34.909,34.909-34.909c19.782,0,34.909,15.127,34.909,34.909c0,19.782-15.127,34.909-34.909,34.909
			c-6.982,0-11.636,4.655-11.636,11.636c0,5.818,4.655,11.636,10.473,11.636c-16.291,47.709-45.382,79.127-84.945,89.6
			c-5.818-11.636-17.455-18.618-31.418-18.618c-13.964,0-25.6,8.145-31.418,18.618c-39.564-10.473-68.655-41.891-84.945-89.6
			c5.818,0,10.473-5.818,10.473-11.636c0-6.982-4.655-11.636-11.636-11.636c-19.782,0-34.909-15.127-34.909-34.909
			c0-19.782,15.127-34.909,34.909-34.909c19.782,0,34.909,15.127,34.909,34.909c0,6.982,4.655,11.636,11.636,11.636
			s11.636-4.655,11.636-11.636c0-32.582-25.6-58.182-58.182-58.182c-32.582,0-58.182,25.6-58.182,58.182
			c0,23.273,13.964,43.055,32.582,52.364c17.455,62.836,55.855,105.891,107.054,118.691C215.273,500.364,229.236,512,245.527,512
			s30.255-11.636,33.745-27.927c51.2-12.8,90.764-54.691,107.055-118.691c19.782-8.145,33.745-27.927,33.745-51.2
			C420.073,281.6,394.473,256,361.891,256z M245.527,488.727c-6.982,0-11.636-4.655-11.636-11.636s4.655-11.636,11.636-11.636
			s11.636,4.655,11.636,11.636S252.509,488.727,245.527,488.727z"/>
	</g>
</g>
<g>
</g>
<g>
</g>
<g>
</g>
<g>
</g>
<g>
</g>
<g>
</g>
<g>
</g>
<g>
</g>
<g>
</g>
<g>
</g>
<g>
</g>
<g>
</g>
<g>
</g>
<g>
</g>
<g>
</g>
</svg>
