<?xml version="1.0" encoding="iso-8859-1"?>
<!-- Generator: Adobe Illustrator 19.0.0, SVG Export Plug-In . SVG Version: 6.00 Build 0)  -->
<svg version="1.1" id="Layer_1" xmlns="http://www.w3.org/2000/svg" xmlns:xlink="http://www.w3.org/1999/xlink" x="0px" y="0px"
	 viewBox="0 0 512 512" style="enable-background:new 0 0 512 512;" xml:space="preserve">
<g>
	<g>
		<g>
			<path d="M418.133,401.067c0-4.71-3.814-8.533-8.533-8.533c-35.507,0-126.652-2.867-205.781-29.423
				c-89.941-30.182-135.552-80.572-135.552-149.769c0-119.236,50.244-196.275,128-196.275c17.161,0,31.838,6.391,41.361,17.997
				c5.854,7.142,9.438,15.889,10.795,25.566c0.026,0.307,0.085,0.589,0.137,0.887c0.87,6.972,0.623,14.404-0.93,22.144
				c-0.922,4.617,2.082,9.114,6.699,10.035c4.617,0.93,9.114-2.065,10.035-6.69c0.35-1.741,0.538-3.456,0.785-5.18
				c9.839,15.821,7.578,31.607,4.506,41.182c-17.775-10.76-33.758-3.038-34.534-2.637c-4.215,2.108-5.931,7.228-3.823,11.443
				c2.116,4.215,7.228,5.922,11.452,3.823c0.111-0.068,11.691-5.658,24.286,6.929c1.604,1.613,3.78,2.5,6.033,2.5
				c0.35,0,0.691-0.017,1.041-0.06c2.611-0.324,4.924-1.835,6.272-4.079c9.916-16.521,18.876-54.989-15.437-85.077
				c-2.039-11.802-6.733-22.596-14.123-31.607C238.003,8.61,218.633,0,196.267,0C109.5,0,51.2,85.734,51.2,213.342
				c0,77.338,49.527,133.171,147.191,165.948c81.51,27.358,174.857,30.31,211.209,30.31
				C414.319,409.6,418.133,405.777,418.133,401.067z"/>
			<path d="M187.733,68.267c0,9.412,7.654,17.067,17.067,17.067s17.067-7.654,17.067-17.067c0-9.412-7.654-17.067-17.067-17.067
				S187.733,58.854,187.733,68.267z"/>
			<path d="M355.9,215.834C319.232,179.157,242.338,153.6,196.267,153.6c-62.285,0-93.867,22.963-93.867,68.267
				c0,64.58,119.151,136.533,290.133,136.533c4.719,0,8.533-3.823,8.533-8.533s-3.814-8.533-8.533-8.533
				c-153.788,0-273.067-64.222-273.067-119.467c0-23.834,8.73-51.2,76.8-51.2c15.59,0,33.698,3.012,52.036,8.064
				c-13.244,14.865-32.239,45.679-25.071,95.548c0.614,4.258,4.267,7.322,8.439,7.322c0.401,0,0.811-0.026,1.229-0.085
				c4.668-0.674,7.902-5.001,7.236-9.668c-7.552-52.48,17.749-79.701,26.53-87.424c12.655,4.403,25.02,9.694,36.412,15.531
				c-13.773,13.986-36.582,44.817-29.926,91.392c0.606,4.25,4.258,7.322,8.44,7.322c0.401,0,0.811-0.026,1.22-0.085
				c4.668-0.666,7.902-4.992,7.236-9.66c-6.255-43.759,18.347-71.04,28.518-80.265c9.916,6.118,18.628,12.604,25.267,19.243
				c1.63,1.63,4.045,4.181,6.818,7.262c-15.053,11.639-32.512,36.002-26.266,73.446c0.691,4.164,4.309,7.125,8.405,7.125
				c0.469,0,0.93-0.034,1.408-0.119c4.651-0.768,7.791-5.171,7.014-9.822c-5.513-33.101,11.255-50.586,20.446-57.489
				c28.911,36.591,78.319,116.685,81.877,240.939c-53.675-29.611-68.676-57.301-68.992-57.907
				c-2.116-4.181-7.228-5.871-11.426-3.772c-4.216,2.116-5.931,7.236-3.823,11.452c0.751,1.502,19.149,37.077,89.156,72.09
				c1.203,0.597,2.509,0.896,3.814,0.896c1.562,0,3.115-0.427,4.48-1.271c2.517-1.553,4.053-4.301,4.053-7.262
				C460.8,333.909,380.51,240.444,355.9,215.834z"/>
		</g>
	</g>
</g>
<g>
</g>
<g>
</g>
<g>
</g>
<g>
</g>
<g>
</g>
<g>
</g>
<g>
</g>
<g>
</g>
<g>
</g>
<g>
</g>
<g>
</g>
<g>
</g>
<g>
</g>
<g>
</g>
<g>
</g>
</svg>
