<?xml version="1.0" encoding="iso-8859-1"?>
<!-- Generator: Adobe Illustrator 18.0.0, SVG Export Plug-In . SVG Version: 6.00 Build 0)  -->
<!DOCTYPE svg PUBLIC "-//W3C//DTD SVG 1.1//EN" "http://www.w3.org/Graphics/SVG/1.1/DTD/svg11.dtd">
<svg version="1.1" id="Capa_1" xmlns="http://www.w3.org/2000/svg" xmlns:xlink="http://www.w3.org/1999/xlink" x="0px" y="0px"
	 viewBox="0 0 277.363 277.363" style="enable-background:new 0 0 277.363 277.363;" xml:space="preserve">
<g>
	<path d="M99.553,106.868c1.232,0,2.48-0.087,3.706-0.257c9.713-1.338,18.048-7.695,23.469-17.9
		c5.161-9.715,7.064-21.851,5.359-34.17c-3.301-23.86-20.066-42.551-38.166-42.551c-1.232,0-2.481,0.087-3.711,0.258
		c-9.473,1.317-17.687,7.491-23.127,17.382c-5.41,9.824-7.432,22.149-5.696,34.703C64.693,88.184,81.457,106.868,99.553,106.868z
		 M75.097,34.04c4.016-7.3,9.83-11.822,16.375-12.732c0.814-0.113,1.639-0.171,2.45-0.171c13.404,0,26.461,15.547,29.105,34.658
		c1.443,10.429-0.111,20.595-4.377,28.625c-4.006,7.541-9.915,12.204-16.644,13.131c-0.815,0.113-1.64,0.171-2.453,0.171
		c-13.401,0-26.458-15.541-29.104-34.643C68.98,52.463,70.631,42.151,75.097,34.04z"/>
	<path d="M25.392,75.8c-1.883,0-3.776,0.234-5.658,0.704c-7.685,1.974-13.75,7.688-17.078,16.089
		c-3.129,7.899-3.506,17.482-1.064,26.982c4.484,17.494,17.229,29.712,30.99,29.712c1.876,0,3.767-0.234,5.654-0.704
		c15.356-3.95,23.325-22.867,18.143-43.064C51.897,88.021,39.154,75.8,25.392,75.8z M35.992,139.716
		c-1.13,0.281-2.278,0.424-3.41,0.424c-9.583,0-18.683-9.391-22.13-22.839c-1.966-7.645-1.714-15.224,0.708-21.339
		c2.221-5.608,6.074-9.372,10.818-10.591c1.127-0.281,2.275-0.423,3.413-0.423c9.583,0,18.681,9.393,22.128,22.843
		C51.428,123.025,46.349,137.051,35.992,139.716z"/>
	<path d="M187.17,12.249c-1.227-0.172-2.478-0.259-3.717-0.259c-18.1,0-34.864,18.691-38.166,42.552
		c-1.701,12.32,0.204,24.455,5.366,34.169c5.422,10.206,13.756,16.563,23.466,17.9c1.217,0.168,2.456,0.253,3.685,0.253
		c18.109,0,34.886-18.689,38.191-42.545c1.732-12.542-0.292-24.862-5.699-34.688C204.844,19.719,196.626,13.545,187.17,12.249z
		 M206.933,63.066c-2.692,19.431-15.487,34.652-29.13,34.652c-0.812,0-1.631-0.057-2.436-0.167
		c-6.722-0.926-12.631-5.589-16.638-13.13c-4.266-8.03-5.822-18.196-4.382-28.625c2.645-19.11,15.702-34.658,29.105-34.658
		c0.816,0,1.64,0.057,2.461,0.172c6.532,0.896,12.344,5.417,16.367,12.731C206.746,42.154,208.398,52.462,206.933,63.066z"/>
	<path d="M257.613,76.496c-1.851-0.462-3.743-0.696-5.624-0.696c-13.764,0-26.508,12.221-30.991,29.719
		c-5.176,20.2,2.794,39.116,18.176,43.073c1.851,0.462,3.742,0.695,5.615,0.695c0.001,0,0.024-0.001,0.027,0
		c13.749,0,26.484-12.218,30.97-29.713C280.964,99.369,272.995,80.45,257.613,76.496z M266.926,117.303
		c-3.448,13.446-12.54,22.837-22.11,22.836h-0.021c-1.133,0-2.28-0.143-3.374-0.415c-10.387-2.672-15.465-16.7-11.561-31.936
		c3.445-13.449,12.545-22.842,22.129-22.842c1.136,0,2.283,0.143,3.378,0.416C265.754,88.033,270.83,102.063,266.926,117.303z"/>
	<path d="M172.346,125.676c-13.003,0-24.759,6.298-33.672,17.889c-8.907-11.59-20.66-17.889-33.659-17.889
		c-19.626,0-36.995,14.362-42.238,34.925c-2.809,11.014-3.352,28.615,10.009,49.921c12.364,19.715,33.794,37.982,63.697,54.292
		c0.683,0.373,1.436,0.559,2.19,0.559c0.753,0,1.507-0.186,2.19-0.559c29.91-16.311,51.347-34.578,63.715-54.293
		c13.366-21.306,12.825-38.907,10.017-49.92C209.351,140.038,191.978,125.676,172.346,125.676z M138.672,255.578
		c-73.637-40.985-69.953-81.262-67.032-92.716c4.209-16.508,17.934-28.038,33.374-28.038c11.68,0,22.243,6.824,29.745,19.214
		c0.829,1.369,2.312,2.205,3.912,2.205c0.001,0,0.001,0,0.001,0c1.6,0,3.083-0.835,3.912-2.204
		c7.508-12.392,18.078-19.216,29.762-19.216c15.448,0,29.176,11.529,33.385,28.037C208.65,174.315,212.33,214.589,138.672,255.578z"
		/>
</g>
<g>
</g>
<g>
</g>
<g>
</g>
<g>
</g>
<g>
</g>
<g>
</g>
<g>
</g>
<g>
</g>
<g>
</g>
<g>
</g>
<g>
</g>
<g>
</g>
<g>
</g>
<g>
</g>
<g>
</g>
</svg>
