<?xml version="1.0" encoding="iso-8859-1"?>
<!-- Generator: Adobe Illustrator 16.0.0, SVG Export Plug-In . SVG Version: 6.00 Build 0)  -->
<!DOCTYPE svg PUBLIC "-//W3C//DTD SVG 1.1//EN" "http://www.w3.org/Graphics/SVG/1.1/DTD/svg11.dtd">
<svg version="1.1" id="Capa_1" xmlns="http://www.w3.org/2000/svg" xmlns:xlink="http://www.w3.org/1999/xlink" x="0px" y="0px"
	 width="602.48px" height="602.481px" viewBox="0 0 602.48 602.481" style="enable-background:new 0 0 602.48 602.481;"
	 xml:space="preserve">
<g>
	<g>
		<path d="M573.785,233.172c-8.826-8.827-19.117-15.761-30.586-20.612c-11.895-5.031-24.506-7.582-37.482-7.582H397.502V96.763
			c0-12.976-2.551-25.588-7.582-37.483c-4.852-11.467-11.785-21.757-20.613-30.584c-8.826-8.826-19.115-15.761-30.584-20.612
			C326.828,3.051,314.217,0.5,301.24,0.5h0c-12.977,0-25.588,2.551-37.483,7.582c-11.468,4.851-21.758,11.785-30.585,20.612
			c-8.826,8.827-15.762,19.117-20.612,30.585c-5.031,11.896-7.583,24.507-7.583,37.483v108.215H96.763
			c-12.977,0-25.588,2.551-37.483,7.583c-11.468,4.851-21.758,11.785-30.585,20.612C19.867,242,12.933,252.29,8.082,263.758
			C3.051,275.653,0.5,288.264,0.5,301.241c0,12.976,2.55,25.587,7.582,37.482c4.851,11.468,11.785,21.758,20.612,30.585
			c8.828,8.827,19.118,15.762,30.585,20.612c11.896,5.031,24.506,7.582,37.483,7.582h108.215v108.215
			c0,12.977,2.551,25.588,7.582,37.482c4.85,11.469,11.786,21.759,20.612,30.586c8.827,8.826,19.117,15.762,30.585,20.612
			c11.896,5.031,24.506,7.582,37.482,7.582c12.977,0,25.588-2.551,37.483-7.582c11.469-4.852,21.758-11.786,30.586-20.612
			c8.826-8.827,15.762-19.117,20.611-30.585c5.031-11.896,7.584-24.506,7.584-37.483V397.502h108.215
			c12.977,0,25.588-2.551,37.482-7.583c11.469-4.851,21.758-11.785,30.586-20.612c8.826-8.826,15.762-19.116,20.611-30.585
			c5.031-11.896,7.582-24.506,7.582-37.483c0-12.975-2.549-25.586-7.582-37.482C589.547,252.29,582.611,241.999,573.785,233.172z
			 M505.717,354.663H369.963c-8.451,0-15.301,6.85-15.301,15.3v135.755c0,29.505-23.918,53.423-53.422,53.423c0,0,0,0,0,0
			c-14.752,0-28.108-5.979-37.775-15.646c-9.667-9.668-15.647-23.023-15.647-37.776V369.962c0-8.45-6.85-15.3-15.3-15.3H96.763
			c-14.752,0-28.108-5.98-37.776-15.647c-9.667-9.668-15.647-23.023-15.647-37.775c0-29.504,23.917-53.423,53.423-53.423h135.755
			c8.45,0,15.3-6.85,15.3-15.3V96.763c0-29.504,23.918-53.423,53.422-53.423c0.002,0,0,0,0,0c29.501,0,53.421,23.919,53.421,53.423
			v135.755c0,8.45,6.85,15.3,15.301,15.3h135.754c29.506,0,53.424,23.918,53.424,53.422
			C559.139,330.745,535.221,354.663,505.717,354.663z"/>
		<path d="M301.24,602.48c-13.044,0-25.72-2.564-37.677-7.621c-11.527-4.876-21.871-11.847-30.744-20.72
			c-8.874-8.874-15.845-19.219-20.719-30.745c-5.057-11.956-7.622-24.632-7.622-37.677V398.002H96.763
			c-13.044,0-25.721-2.564-37.678-7.621c-11.527-4.876-21.871-11.848-30.744-20.72c-8.872-8.873-15.843-19.216-20.719-30.744
			C2.564,326.962,0,314.286,0,301.241c0-13.044,2.564-25.721,7.622-37.678c4.875-11.527,11.846-21.872,20.719-30.744
			c8.873-8.872,19.217-15.843,30.744-20.719c11.956-5.058,24.633-7.623,37.678-7.623h107.714V96.763
			c0-13.043,2.564-25.72,7.622-37.678c4.875-11.527,11.847-21.871,20.719-30.744c8.872-8.873,19.216-15.843,30.744-20.719
			C275.519,2.564,288.195,0,301.24,0c13.045,0,25.722,2.564,37.677,7.622c11.527,4.875,21.87,11.847,30.743,20.719
			c8.871,8.869,15.842,19.213,20.721,30.743c5.057,11.957,7.621,24.634,7.621,37.678v107.715h107.715
			c13.045,0,25.721,2.564,37.677,7.622c11.53,4.877,21.874,11.848,30.745,20.719c8.872,8.873,15.843,19.216,20.721,30.744
			c5.057,11.953,7.621,24.629,7.621,37.677c0,13.044-2.564,25.72-7.621,37.677c-4.874,11.526-11.845,21.87-20.719,30.744
			c-8.874,8.873-19.218,15.845-30.745,20.72c-11.955,5.058-24.631,7.622-37.677,7.622H398.004v107.715
			c0,13.041-2.564,25.718-7.623,37.678c-4.874,11.525-11.845,21.869-20.719,30.744c-8.874,8.872-19.218,15.844-30.745,20.719
			C326.962,599.916,314.285,602.48,301.24,602.48z M96.763,205.478c-12.911,0-25.457,2.538-37.289,7.543
			c-11.409,4.825-21.646,11.724-30.427,20.505c-8.781,8.781-15.68,19.018-20.505,30.427C3.538,275.786,1,288.331,1,301.241
			c0,12.91,2.538,25.456,7.542,37.288c4.826,11.408,11.724,21.645,20.505,30.426c8.781,8.781,19.019,15.68,30.427,20.505
			c11.833,5.005,24.378,7.543,37.289,7.543h108.715v108.715c0,12.91,2.538,25.455,7.542,37.288
			c4.824,11.407,11.723,21.644,20.505,30.427c8.782,8.781,19.019,15.681,30.427,20.505c11.833,5.005,24.378,7.543,37.288,7.543
			c12.911,0,25.457-2.538,37.289-7.543c11.407-4.825,21.644-11.725,30.427-20.505c8.782-8.783,15.681-19.02,20.504-30.426
			c5.007-11.837,7.545-24.383,7.545-37.289V397.002h108.715c12.911,0,25.456-2.538,37.287-7.543
			c11.408-4.825,21.645-11.725,30.428-20.506c8.782-8.782,15.681-19.019,20.504-30.426c5.005-11.834,7.543-24.379,7.543-37.289
			c0-12.914-2.538-25.458-7.542-37.287c-4.827-11.409-11.727-21.646-20.507-30.427c-8.779-8.78-19.017-15.679-30.427-20.505
			c-11.833-5.005-24.378-7.542-37.288-7.542H397.002V96.763c0-12.91-2.538-25.456-7.543-37.289
			c-4.827-11.411-11.727-21.647-20.506-30.425c-8.781-8.781-19.018-15.68-30.425-20.505C326.696,3.538,314.15,1,301.24,1
			s-25.456,2.538-37.289,7.542c-11.409,4.826-21.646,11.725-30.426,20.505c-8.781,8.782-15.68,19.019-20.505,30.426
			c-5.005,11.834-7.543,24.379-7.543,37.288v108.715H96.763z M301.24,559.64c-14.403,0-27.945-5.608-38.129-15.793
			s-15.793-23.727-15.793-38.13V369.962c0-8.16-6.639-14.8-14.8-14.8H96.763c-14.402,0-27.943-5.609-38.129-15.794
			C48.449,329.184,42.84,315.642,42.84,301.24c0-29.733,24.19-53.923,53.923-53.923h135.755c8.161,0,14.8-6.639,14.8-14.8V96.763
			c0-29.733,24.189-53.923,53.922-53.923c29.732,0,53.922,24.19,53.922,53.923v135.755c0,8.161,6.64,14.8,14.801,14.8h135.754
			c29.733,0,53.924,24.189,53.924,53.922c-0.002,29.733-24.192,53.922-53.924,53.922H369.963c-8.161,0-14.801,6.64-14.801,14.8
			v135.755C355.162,535.451,330.973,559.64,301.24,559.64z M96.763,248.317c-29.182,0-52.923,23.741-52.923,52.923
			c0,14.136,5.505,27.426,15.5,37.422c9.997,9.996,23.287,15.501,37.422,15.501h135.754c8.712,0,15.8,7.088,15.8,15.8v135.755
			c0,14.137,5.505,27.427,15.5,37.423c9.996,9.995,23.286,15.5,37.422,15.5c29.182,0,52.923-23.741,52.923-52.923V369.962
			c0-8.712,7.088-15.8,15.801-15.8h135.754c29.181,0,52.922-23.741,52.924-52.922c0-29.182-23.741-52.922-52.924-52.922H369.963
			c-8.713,0-15.801-7.088-15.801-15.8V96.763c0-29.182-23.74-52.923-52.921-52.923c-29.182,0-52.923,23.741-52.923,52.923v135.754
			c0,8.712-7.088,15.8-15.8,15.8H96.763z"/>
	</g>
</g>
<g>
</g>
<g>
</g>
<g>
</g>
<g>
</g>
<g>
</g>
<g>
</g>
<g>
</g>
<g>
</g>
<g>
</g>
<g>
</g>
<g>
</g>
<g>
</g>
<g>
</g>
<g>
</g>
<g>
</g>
</svg>
