<?xml version="1.0" encoding="iso-8859-1"?>
<!-- Generator: Adobe Illustrator 19.0.0, SVG Export Plug-In . SVG Version: 6.00 Build 0)  -->
<svg version="1.1" id="Capa_1" xmlns="http://www.w3.org/2000/svg" xmlns:xlink="http://www.w3.org/1999/xlink" x="0px" y="0px"
	 viewBox="0 0 431.347 431.347" style="enable-background:new 0 0 431.347 431.347;" xml:space="preserve">
<path id="XMLID_47_" d="M60.177,103.279v-18h17.564v18H60.177z M195.34,310.388c-12.314-17.736-36.526-49.441-60.314-62.499
	c-21.169-11.621-34.072-3.648-39.881,2.138l12.705,12.751c2.254-2.247,5.523-4.211,12.662-1.757
	c14.05,4.827,33.989,23.833,54.706,52.146c14.808,20.237,24.831,38.142,28.947,47.45c-10.541,1.535-25.629-0.151-41.676-4.841
	c-22.353-6.534-42.723-17.648-55.888-30.492c-14.992-14.627-19.483-29.964-13.35-45.585l2.325-5.92l-4.805-4.168
	c-16.492-14.305-24.906-30.681-25.007-48.673l-0.41-73.931h-8.95C35.229,147.005,18,129.776,18,108.6
	c0-21.176,17.229-38.405,38.405-38.405h23.701c8.845,0,14.106,7.764,14.733,15.437c0.111,1.366,0.122,3.688,0.133,6.145
	c0.052,11.392,0.123,26.993,7.953,35.816l13.463-11.948c-3.324-3.745-3.389-17.903-3.416-23.949
	c-0.013-2.938-0.024-5.474-0.193-7.53c-1.487-18.226-15.533-31.97-32.673-31.97H56.405C25.304,52.195,0,77.498,0,108.6
	c0,28.055,20.59,51.392,47.451,55.695l0.314,56.742c0.12,21.315,9.339,41.285,26.74,58.08c-5.563,20.448,1.234,41.203,19.526,59.049
	c15.206,14.835,38.316,27.551,63.407,34.885c13.872,4.055,26.937,6.101,38.207,6.101c8.977,0,16.815-1.298,23.016-3.911l4.292-1.809
	l1.002-4.548c0.738-3.352,0.807-8.298-7.786-24.665C210.85,334.086,203.452,322.07,195.34,310.388z M317.151,276.567
	c-9.628-3.972-23.822-6.079-34.781-0.089c-6.743,3.686-11.061,9.793-12.485,17.663l17.711,3.208
	c0.447-2.467,1.498-4.032,3.406-5.076c4.243-2.319,12.354-1.926,19.286,0.934c23.851,9.838,49.97,47.685,58.715,65.336
	c-21.86-0.602-56.692-9.203-74.321-24.043c-6.542-5.507-9.923-11.23-10.051-17.011l-0.151-6.817l-6.603-1.7
	c-10.733-2.764-43.312-6.911-64.873,6.895l9.705,15.159c12.381-7.927,32.896-7.559,44.891-5.756
	c2.028,8.324,7.215,16.035,15.49,23.001c22.309,18.779,63.577,28.252,88.795,28.251c3.884,0,7.391-0.225,10.385-0.675l6.119-0.92
	l1.332-6.043c2.563-11.627-16.183-38.507-21.989-46.469C357.999,309.07,338.485,285.367,317.151,276.567z M429.473,219.554
	c-9.41,31.17-31.051,56.212-68.094,78.796l-9.369-15.369c26.69-16.272,44.311-33.632,54.342-53.771
	c-57.392,10.891-134.155,11.81-158.058,11.81c-55.169,0-109.044-6.086-155.803-17.602l-6.188-1.524l-0.618-6.342
	c-0.305-3.128-0.459-6.282-0.459-9.372c0-33.767,17.305-65.342,48.726-88.907c30.646-22.985,71.254-35.643,114.342-35.643
	c78.001,0,145.128,42.18,160.02,100.416c0.938,0.727,3.139,1.851,4.656,2.625C420.716,188.624,436.821,196.841,429.473,219.554z
	 M123.917,211.837c1.899-16.608,8.691-33.886,19.649-49.651c10.612-15.269,24.015-27.674,37.469-34.829V111.79
	c-46.214,17.838-77.809,53.457-77.809,94.391c0,0.432,0.004,0.865,0.011,1.3C109.99,209.047,116.893,210.5,123.917,211.837z
	 M239.294,222.964l-0.002-51.875l-48.962-28.27c-20.266,10.445-45.607,40.264-48.656,72.106
	C172.617,219.818,205.625,222.55,239.294,222.964z M297.551,127.06v-21.068c-15.683-4.175-32.345-6.362-49.257-6.362
	c-17.283,0-33.874,2.232-49.259,6.324v21.107l49.257,28.44L297.551,127.06z M360.417,217.54
	c-3.834-30.818-31.886-63.651-53.465-75.123l-49.66,28.672l0.002,51.894C289.097,222.728,326.513,221.115,360.417,217.54z
	 M404.788,200.704c-5.304-2.707-11.904-6.075-13.749-13.548c-5.905-23.911-23.124-45.881-48.484-61.865
	c-8.34-5.256-17.405-9.761-27.004-13.463v14.795c25.711,13.885,58.102,50.938,62.744,88.798c12.668-1.684,24.548-3.685,35.09-6.04
	C413.619,205.41,411.041,203.895,404.788,200.704z"/>
<g>
</g>
<g>
</g>
<g>
</g>
<g>
</g>
<g>
</g>
<g>
</g>
<g>
</g>
<g>
</g>
<g>
</g>
<g>
</g>
<g>
</g>
<g>
</g>
<g>
</g>
<g>
</g>
<g>
</g>
</svg>
